<svg viewBox="0 0 32 32" xmlns="http://www.w3.org/2000/svg">
    <path fill="#000" d="M3 15 H29 V16 H30 V26 H29 V27 H25 V26 H24 V25 H8 V26 H7 V27 H3 V26 H2 V16 H3 V15 M5 16 H6 V15 H5 V16 M26 15 H27 V16 H26 V15 M2 17 H3 V25 H2 V17 M29 17 H30 V25 H29 V17 M4 26 H7 V25 H4 V26 M25 25 H28 V26 H25 V25 M8 15 H24 V14 H22 V13 H21 V12 H19 V11 H13 V12 H11 V13 H10 V14 H8 V15 M9 15 V16 H23 V15 H9"/>
    <path fill="#EF4444" d="M4 16 H5 V25 H4 V16 M27 16 H28 V25 H27 V16 M8 16 H9 V25 H8 V16 M23 16 H24 V25 H23 V16 M5 15 H6 V14 H8 V13 H10 V12 H11 V11 H13 V10 H19 V11 H21 V12 H22 V13 H24 V14 H26 V15 H5 M9 16 H23 V25 H9 V16"/>
    <path fill="#9CA3AF" d="M6 14 H8 V13 M24 13 H26 V14 M6 15 H8 V25 H6 V15 M24 15 H26 V25 H24 V15 M11 11 H13 V10 M19 10 H21 V11 M11 12 H21 V13 H11 V12 M10 13 H22 V14 H10 V13 M8 14 H24 V15 H8 V14"/>
    <path fill="#1F2937" d="M4 25 H8 V26 H4 V25 M24 25 H28 V26 H24 V25"/>
    <path fill="#F9FAFB" d="M5 26 H7 V27 H5 V26 M25 26 H27 V27 H25 V26"/>
</svg>