<svg viewBox="0 0 32 32"
    xmlns="http://www.w3.org/2000/svg">
    <path fill="#000" d="M16 1 A4 4 0 0 0 13 3 L13 7 H11 L10 9 H9 L7 10 V11 L5 13 H3 L1 16 H3 L5 19 H7 L9 21 V22 L10 23 H11 L13 25 V29 A4 4 0 0 0 16 31 A4 4 0 0 0 19 29 V25 L21 23 H22 L23 22 V21 L25 19 H27 L29 16 H31 L29 13 H27 L25 11 V10 L23 9 H22 L21 7 H19 L19 3 A4 4 0 0 0 16 1 M16 4 A1 1 0 0 1 17 5 V10 H15 V5 A1 1 0 0 1 16 4 M16 28 A1 1 0 0 1 15 27 V22 H17 V27 A1 1 0 0 1 16 28 M5 16 A1 1 0 0 1 4 15 H10 V17 H4 A1 1 0 0 1 5 16 M27 16 A1 1 0 0 1 28 17 H22 V15 H28 A1 1 0 0 1 27 16"/>
    <path fill="#9CA3AF" d="M16 2 A3 3 0 0 0 14 4 V7 H11 L9 10 V11 L6 13 H4 L3 16 L4 19 H6 L9 21 V22 L11 25 H14 V28 A3 3 0 0 0 16 30 A3 3 0 0 0 18 28 V25 H21 L23 22 V21 L26 19 H28 L29 16 L28 13 H26 L23 11 V10 L21 7 H18 V4 A3 3 0 0 0 16 2 M16 11 A5 5 0 0 0 11 16 A5 5 0 0 0 16 21 A5 5 0 0 0 21 16 A5 5 0 0 0 16 11"/>
    <path fill="#F9FAFB" d="M16 12 A4 4 0 0 1 20 16 A4 4 0 0 1 16 20 A4 4 0 0 1 12 16 A4 4 0 0 1 16 12"/>
</svg>